<svg width="271" height="50" viewBox="0 0 271 50" fill="none" xmlns="http://www.w3.org/2000/svg">
<rect width="50" height="50" rx="10" fill="#7535FC"/>
<path d="M32.9744 28.2104C32.8406 27.9787 32.5061 27.9787 32.3722 28.2103L24.6982 41.4953C24.5648 41.7262 24.7303 42.0167 24.9971 42.0171C25.0052 42.0171 25.0134 42.0171 25.0216 42.0171C29.9579 42.0171 34.4024 39.9125 37.5074 36.5519C37.6109 36.4397 37.6297 36.2734 37.5534 36.1414L32.9744 28.2104ZM25.9243 32.9825L10.6005 32.9967C10.3336 32.9969 10.1653 33.2861 10.299 33.5171C12.6349 37.5562 16.5851 40.5446 21.2676 41.6002C21.4165 41.6339 21.5701 41.5671 21.6465 41.4351L26.2257 33.5036C26.3596 33.2716 26.1921 32.9822 25.9243 32.9825ZM39.7509 16.5369C37.413 12.4869 33.4528 9.49135 28.7582 8.4381C28.6093 8.40468 28.456 8.47124 28.3797 8.60353L23.7979 16.5393C23.6641 16.7713 23.8314 17.0609 24.0992 17.0608L39.449 17.058C39.7159 17.058 39.8844 16.768 39.7509 16.5369ZM40.9227 19.7296H31.7607C31.493 19.7296 31.3257 20.0195 31.4597 20.2512L39.1332 33.5328C39.2673 33.7648 39.6016 33.7637 39.736 33.5319C41.1866 31.0292 42.0173 28.1223 42.0173 25.0215C42.0173 23.264 41.7504 21.5691 41.2552 19.9746C41.21 19.829 41.0752 19.7296 40.9227 19.7296ZM25.0276 8.02576C25.0256 8.02576 25.0236 8.02576 25.0215 8.02576C20.0861 8.02576 15.6422 10.1297 12.5373 13.4893C12.4337 13.6012 12.4149 13.7678 12.4912 13.8999L17.0695 21.8297C17.2034 22.0617 17.5382 22.0614 17.6719 21.8295L25.3268 8.54704C25.4597 8.31618 25.2942 8.02581 25.0276 8.02576ZM9.12412 30.3252H18.2893C18.557 30.3252 18.7243 30.0354 18.5904 29.8035L10.911 16.508C10.777 16.2758 10.4427 16.2769 10.3083 16.5089C8.85693 19.012 8.02588 21.9197 8.02588 25.0215C8.02588 26.7833 8.29418 28.4824 8.79179 30.0804C8.83708 30.226 8.97171 30.3252 9.12412 30.3252Z" fill="white"/>
<path d="M66.89 40.73C65.33 40.35 64.15 39.54 63.35 38.3C62.55 37.08 62.17 35.59 62.21 33.83C62.27 32.05 62.77 30.07 63.71 27.89C64.67 25.71 66.12 23.46 68.06 21.14C69.46 19.46 71 17.99 72.68 16.73C74.36 15.47 76.05 14.44 77.75 13.64C79.45 12.82 81.11 12.22 82.73 11.84C84.35 11.46 85.82 11.31 87.14 11.39C87.42 11.09 87.7 10.8 87.98 10.52C88.28 10.24 88.58 9.96 88.88 9.68C89.6 9.64 90.16 9.75 90.56 10.01C90.98 10.27 91.22 10.62 91.28 11.06C91.06 11.22 90.85 11.38 90.65 11.54C90.45 11.7 90.24 11.86 90.02 12.02C90.5 12.26 90.91 12.55 91.25 12.89C91.23 13.13 91.19 13.4 91.13 13.7C91.07 14 90.97 14.3 90.83 14.6C90.71 14.88 90.55 15.14 90.35 15.38C90.15 15.62 89.92 15.8 89.66 15.92C90.04 16.22 90.32 16.62 90.5 17.12C90.68 17.6 90.77 18.16 90.77 18.8C90.79 19.44 90.71 20.14 90.53 20.9C90.37 21.66 90.14 22.46 89.84 23.3C90.62 23.28 91.41 23.22 92.21 23.12C93.03 23.02 93.8 22.88 94.52 22.7C95.26 22.52 95.94 22.32 96.56 22.1C97.18 21.88 97.7 21.64 98.12 21.38C98.5 21.42 98.73 21.51 98.81 21.65C98.89 21.79 98.91 21.97 98.87 22.19C98.87 22.23 98.86 22.27 98.84 22.31C98.84 22.33 98.84 22.36 98.84 22.4L98.69 22.64C97.13 23.54 95.49 24.23 93.77 24.71C92.07 25.17 90.45 25.42 88.91 25.46C88.35 26.62 87.67 27.81 86.87 29.03C86.09 30.25 85.22 31.43 84.26 32.57C83.32 33.71 82.29 34.79 81.17 35.81C80.07 36.81 78.91 37.69 77.69 38.45C76.49 39.21 75.24 39.82 73.94 40.28C72.64 40.76 71.33 41.02 70.01 41.06C69.65 42.3 69.48 43.34 69.5 44.18C69.28 44.28 69.01 44.32 68.69 44.3C68.37 44.28 68.04 44.21 67.7 44.09C67.38 43.99 67.07 43.83 66.77 43.61C66.49 43.41 66.28 43.16 66.14 42.86C66.24 42.52 66.35 42.17 66.47 41.81C66.61 41.47 66.76 41.11 66.92 40.73H66.89ZM68.6 37.07C69.46 35.37 70.46 33.56 71.6 31.64C72.76 29.7 74.02 27.74 75.38 25.76C76.74 23.78 78.19 21.81 79.73 19.85C81.27 17.87 82.85 15.99 84.47 14.21C83.35 14.27 82.13 14.48 80.81 14.84C79.49 15.2 78.15 15.74 76.79 16.46C75.43 17.18 74.07 18.09 72.71 19.19C71.37 20.27 70.11 21.56 68.93 23.06C67.59 24.78 66.62 26.39 66.02 27.89C65.42 29.39 65.13 30.75 65.15 31.97C65.17 33.17 65.48 34.21 66.08 35.09C66.68 35.97 67.52 36.63 68.6 37.07ZM71.24 37.64C72.38 37.74 73.5 37.64 74.6 37.34C75.7 37.04 76.76 36.6 77.78 36.02C78.8 35.42 79.76 34.72 80.66 33.92C81.58 33.1 82.43 32.22 83.21 31.28C83.99 30.34 84.69 29.37 85.31 28.37C85.95 27.35 86.49 26.35 86.93 25.37C85.57 25.21 84.4 24.83 83.42 24.23C82.46 23.61 81.82 22.76 81.5 21.68L81.41 21.2C80.37 22.52 79.36 23.89 78.38 25.31C77.4 26.73 76.47 28.15 75.59 29.57C74.71 30.97 73.9 32.36 73.16 33.74C72.42 35.1 71.78 36.4 71.24 37.64ZM83.84 20.96C83.98 21.64 84.4 22.16 85.1 22.52C85.8 22.88 86.68 23.12 87.74 23.24C88.2 21.76 88.37 20.55 88.25 19.61C88.13 18.67 87.67 18.13 86.87 17.99C86.47 17.93 86.07 17.98 85.67 18.14C85.29 18.3 84.95 18.53 84.65 18.83C84.35 19.13 84.12 19.47 83.96 19.85C83.8 20.23 83.76 20.6 83.84 20.96ZM86.48 15.32C87 15.26 87.61 15.28 88.31 15.38C88.75 15.44 89.1 15.55 89.36 15.71C89.06 15.13 88.39 14.7 87.35 14.42L86.48 15.32ZM91.0208 36.62C90.2608 36.08 89.7708 35.44 89.5508 34.7C89.3108 33.94 89.2908 33.14 89.4908 32.3C89.6708 31.44 90.0208 30.56 90.5408 29.66C91.0608 28.74 91.6808 27.86 92.4008 27.02C93.1408 26.16 93.9508 25.36 94.8308 24.62C95.7308 23.88 96.6308 23.24 97.5308 22.7L97.5608 22.64C97.7608 22.24 98.1208 21.88 98.6408 21.56C99.1808 21.22 99.7908 20.95 100.471 20.75C101.151 20.53 101.861 20.38 102.601 20.3C103.361 20.2 104.051 20.18 104.671 20.24C105.311 20.28 105.851 20.4 106.291 20.6C106.751 20.8 107.021 21.08 107.101 21.44C107.221 21.98 107.181 22.62 106.981 23.36C106.781 24.08 106.461 24.85 106.021 25.67C105.601 26.49 105.081 27.34 104.461 28.22C103.841 29.08 103.161 29.93 102.421 30.77C103.141 30.87 103.901 30.8 104.701 30.56C105.501 30.3 106.281 29.85 107.041 29.21C107.381 29.17 107.641 29.29 107.821 29.57C108.021 29.85 108.101 30.13 108.061 30.41C106.961 31.37 105.781 32 104.521 32.3C103.281 32.58 102.121 32.57 101.041 32.27C100.161 33.15 99.2508 33.95 98.3108 34.67C97.3908 35.39 96.4908 35.97 95.6108 36.41C94.7308 36.83 93.8908 37.08 93.0908 37.16C92.3108 37.22 91.6208 37.04 91.0208 36.62ZM93.0908 33.65C93.4108 33.89 93.7908 34.02 94.2308 34.04C94.6908 34.04 95.1808 33.94 95.7008 33.74C96.2408 33.52 96.8008 33.21 97.3808 32.81C97.9808 32.41 98.5808 31.92 99.1808 31.34C99.0808 31.24 98.9808 31.16 98.8808 31.1C98.8008 31.02 98.7208 30.93 98.6408 30.83C98.2408 30.41 97.9208 29.95 97.6808 29.45C97.4408 28.95 97.2508 28.45 97.1108 27.95C96.9908 27.43 96.9208 26.92 96.9008 26.42C96.8808 25.9 96.8908 25.41 96.9308 24.95C95.7508 25.79 94.8008 26.65 94.0808 27.53C93.3808 28.41 92.8808 29.25 92.5808 30.05C92.3008 30.85 92.2108 31.57 92.3108 32.21C92.4108 32.85 92.6708 33.33 93.0908 33.65ZM100.051 29.42C100.131 29.52 100.201 29.61 100.261 29.69C100.321 29.77 100.401 29.85 100.501 29.93C100.801 29.55 101.091 29.17 101.371 28.79C101.671 28.39 101.961 27.97 102.241 27.53C102.941 26.39 103.441 25.46 103.741 24.74C104.041 24.02 104.171 23.46 104.131 23.06C104.111 22.64 103.951 22.36 103.651 22.22C103.371 22.08 102.991 22.03 102.511 22.07C102.131 22.11 101.761 22.25 101.401 22.49C101.041 22.73 100.711 23.04 100.411 23.42C100.111 23.78 99.8508 24.21 99.6308 24.71C99.4308 25.19 99.3008 25.7 99.2408 26.24C99.1808 26.76 99.2108 27.3 99.3308 27.86C99.4508 28.4 99.6908 28.92 100.051 29.42ZM122.373 38.3C121.593 37.9 121.183 37.34 121.143 36.62C121.103 35.9 121.273 35.12 121.653 34.28C122.053 33.44 122.583 32.58 123.243 31.7C123.923 30.82 124.573 30.02 125.193 29.3C125.813 28.58 126.323 27.93 126.723 27.35C127.143 26.77 127.413 26.32 127.533 26C127.673 25.66 127.643 25.46 127.443 25.4C127.263 25.34 126.903 25.47 126.363 25.79C126.083 25.95 125.823 26.11 125.583 26.27C125.363 26.43 125.143 26.59 124.923 26.75C124.723 26.89 124.523 27.03 124.323 27.17C124.143 27.31 123.943 27.44 123.723 27.56C122.443 28.56 121.193 29.62 119.973 30.74C118.773 31.86 117.673 32.92 116.673 33.92C115.693 34.9 114.853 35.77 114.153 36.53C113.473 37.27 113.023 37.77 112.803 38.03C112.403 37.91 112.023 37.66 111.663 37.28C111.303 36.9 111.043 36.56 110.883 36.26C111.423 35.54 112.003 34.77 112.623 33.95C113.243 33.11 113.873 32.26 114.513 31.4C115.153 30.52 115.773 29.66 116.373 28.82C116.993 27.96 117.563 27.16 118.083 26.42C118.303 26.02 118.363 25.81 118.263 25.79C118.183 25.75 117.793 25.88 117.093 26.18C115.893 26.88 114.793 27.64 113.793 28.46C112.813 29.26 111.943 30.04 111.183 30.8C110.423 31.56 109.783 32.25 109.263 32.87C108.743 33.47 108.353 33.92 108.093 34.22C107.573 34.84 107.053 35.44 106.533 36.02C106.013 36.6 105.483 37.15 104.943 37.67C104.683 37.69 104.443 37.63 104.223 37.49C103.983 37.33 103.783 37.14 103.623 36.92C103.443 36.68 103.303 36.43 103.203 36.17C103.103 35.91 103.053 35.67 103.053 35.45C103.573 34.49 104.313 33.27 105.273 31.79C106.233 30.31 107.283 28.71 108.423 26.99C109.083 26.01 109.743 25.02 110.403 24.02C111.063 23.02 111.713 22.04 112.353 21.08C112.473 20.98 112.723 20.93 113.103 20.93C113.483 20.91 113.873 20.95 114.273 21.05C114.673 21.13 115.023 21.26 115.323 21.44C115.623 21.6 115.753 21.8 115.713 22.04C114.153 23.62 112.733 25.18 111.453 26.72C110.193 28.24 109.083 29.73 108.123 31.19C109.083 30.33 110.073 29.45 111.093 28.55C112.113 27.65 113.103 26.81 114.063 26.03C115.043 25.23 115.953 24.51 116.793 23.87C117.653 23.23 118.393 22.74 119.013 22.4C120.253 21.7 121.233 21.28 121.953 21.14C122.693 21 123.143 21.13 123.303 21.53C123.483 21.91 123.353 22.55 122.913 23.45C122.493 24.35 121.743 25.49 120.663 26.87C120.103 27.57 119.663 28.14 119.343 28.58C119.023 29.02 118.773 29.37 118.593 29.63C118.673 29.57 118.753 29.51 118.833 29.45C118.913 29.37 119.003 29.3 119.103 29.24C119.423 28.94 119.803 28.6 120.243 28.22C120.703 27.82 121.183 27.41 121.683 26.99C122.183 26.57 122.683 26.16 123.183 25.76C123.683 25.34 124.143 24.97 124.563 24.65C124.983 24.31 125.333 24.03 125.613 23.81C125.913 23.57 126.103 23.42 126.183 23.36C127.443 22.44 128.543 21.84 129.483 21.56C130.443 21.28 131.123 21.31 131.523 21.65C131.943 21.97 132.023 22.59 131.763 23.51C131.503 24.41 130.803 25.58 129.663 27.02C128.603 28.36 127.723 29.5 127.023 30.44C126.323 31.36 125.793 32.13 125.433 32.75C125.093 33.35 124.913 33.82 124.893 34.16C124.893 34.5 125.063 34.75 125.403 34.91C125.583 34.91 125.953 34.74 126.513 34.4C127.073 34.04 127.713 33.59 128.433 33.05C129.173 32.51 129.933 31.91 130.713 31.25C131.513 30.57 132.243 29.9 132.903 29.24C133.703 29.08 134.053 29.46 133.953 30.38C132.953 31.52 131.913 32.58 130.833 33.56C129.753 34.52 128.693 35.36 127.653 36.08C126.633 36.78 125.663 37.33 124.743 37.73C123.823 38.13 123.033 38.32 122.373 38.3ZM133.091 36.62C132.331 36.08 131.841 35.44 131.621 34.7C131.381 33.94 131.361 33.14 131.561 32.3C131.741 31.44 132.091 30.56 132.611 29.66C133.131 28.74 133.751 27.86 134.471 27.02C135.211 26.16 136.021 25.36 136.901 24.62C137.801 23.88 138.701 23.24 139.601 22.7L139.631 22.64C139.831 22.24 140.191 21.88 140.711 21.56C141.251 21.22 141.861 20.95 142.541 20.75C143.221 20.53 143.931 20.38 144.671 20.3C145.431 20.2 146.121 20.18 146.741 20.24C147.381 20.28 147.921 20.4 148.361 20.6C148.821 20.8 149.091 21.08 149.171 21.44C149.291 21.98 149.251 22.62 149.051 23.36C148.851 24.08 148.531 24.85 148.091 25.67C147.671 26.49 147.151 27.34 146.531 28.22C145.911 29.08 145.231 29.93 144.491 30.77C145.211 30.87 145.971 30.8 146.771 30.56C147.571 30.3 148.351 29.85 149.111 29.21C149.451 29.17 149.711 29.29 149.891 29.57C150.091 29.85 150.171 30.13 150.131 30.41C149.031 31.37 147.851 32 146.591 32.3C145.351 32.58 144.191 32.57 143.111 32.27C142.231 33.15 141.321 33.95 140.381 34.67C139.461 35.39 138.561 35.97 137.681 36.41C136.801 36.83 135.961 37.08 135.161 37.16C134.381 37.22 133.691 37.04 133.091 36.62ZM135.161 33.65C135.481 33.89 135.861 34.02 136.301 34.04C136.761 34.04 137.251 33.94 137.771 33.74C138.311 33.52 138.871 33.21 139.451 32.81C140.051 32.41 140.651 31.92 141.251 31.34C141.151 31.24 141.051 31.16 140.951 31.1C140.871 31.02 140.791 30.93 140.711 30.83C140.311 30.41 139.991 29.95 139.751 29.45C139.511 28.95 139.321 28.45 139.181 27.95C139.061 27.43 138.991 26.92 138.971 26.42C138.951 25.9 138.961 25.41 139.001 24.95C137.821 25.79 136.871 26.65 136.151 27.53C135.451 28.41 134.951 29.25 134.651 30.05C134.371 30.85 134.281 31.57 134.381 32.21C134.481 32.85 134.741 33.33 135.161 33.65ZM142.121 29.42C142.201 29.52 142.271 29.61 142.331 29.69C142.391 29.77 142.471 29.85 142.571 29.93C142.871 29.55 143.161 29.17 143.441 28.79C143.741 28.39 144.031 27.97 144.311 27.53C145.011 26.39 145.511 25.46 145.811 24.74C146.111 24.02 146.241 23.46 146.201 23.06C146.181 22.64 146.021 22.36 145.721 22.22C145.441 22.08 145.061 22.03 144.581 22.07C144.201 22.11 143.831 22.25 143.471 22.49C143.111 22.73 142.781 23.04 142.481 23.42C142.181 23.78 141.921 24.21 141.701 24.71C141.501 25.19 141.371 25.7 141.311 26.24C141.251 26.76 141.281 27.3 141.401 27.86C141.521 28.4 141.761 28.92 142.121 29.42ZM152.623 38.3C152.103 38.04 151.753 37.7 151.573 37.28C151.413 36.86 151.363 36.4 151.423 35.9C151.503 35.4 151.673 34.87 151.933 34.31C152.213 33.73 152.543 33.15 152.923 32.57C153.303 31.99 153.713 31.42 154.153 30.86C154.593 30.3 155.023 29.78 155.443 29.3C156.083 28.58 156.603 27.93 157.003 27.35C157.423 26.77 157.693 26.32 157.813 26C157.933 25.66 157.903 25.46 157.723 25.4C157.543 25.34 157.183 25.47 156.643 25.79C156.343 25.95 156.073 26.12 155.833 26.3C155.593 26.46 155.363 26.62 155.143 26.78C154.963 26.92 154.783 27.06 154.603 27.2C154.423 27.32 154.223 27.44 154.003 27.56C153.143 28.22 152.293 28.92 151.453 29.66C150.633 30.38 149.843 31.1 149.083 31.82C148.323 32.54 147.613 33.24 146.953 33.92C146.273 34.58 145.673 35.19 145.153 35.75C144.633 36.29 144.193 36.76 143.833 37.16C143.473 37.56 143.223 37.85 143.083 38.03C142.643 37.91 142.253 37.65 141.913 37.25C141.553 36.85 141.293 36.51 141.133 36.23C141.653 35.77 142.193 35.3 142.753 34.82C143.313 34.32 143.903 33.8 144.523 33.26C146.103 31.86 147.863 30.33 149.803 28.67C151.743 26.99 153.953 25.22 156.433 23.36C157.693 22.44 158.793 21.84 159.733 21.56C160.693 21.28 161.373 21.31 161.773 21.65C162.193 21.97 162.273 22.59 162.013 23.51C161.773 24.41 161.083 25.58 159.943 27.02C158.883 28.36 158.003 29.5 157.303 30.44C156.603 31.36 156.073 32.13 155.713 32.75C155.373 33.35 155.193 33.82 155.173 34.16C155.173 34.5 155.333 34.75 155.653 34.91C155.853 34.91 156.253 34.75 156.853 34.43C157.453 34.09 158.133 33.66 158.893 33.14C159.653 32.6 160.433 31.99 161.233 31.31C162.053 30.63 162.773 29.93 163.393 29.21C163.773 29.17 164.043 29.27 164.203 29.51C164.383 29.73 164.463 30.02 164.443 30.38C163.503 31.52 162.483 32.58 161.383 33.56C160.283 34.52 159.193 35.36 158.113 36.08C157.033 36.78 156.013 37.33 155.053 37.73C154.093 38.13 153.283 38.32 152.623 38.3ZM159.06 38.78C158.54 38.34 158.33 37.77 158.43 37.07C158.53 36.35 158.82 35.58 159.3 34.76C159.76 33.92 160.34 33.05 161.04 32.15C161.72 31.25 162.4 30.37 163.08 29.51C163.66 28.79 164.23 28.07 164.79 27.35C165.35 26.63 165.85 25.94 166.29 25.28C166.75 24.6 167.13 23.95 167.43 23.33C167.75 22.71 167.95 22.14 168.03 21.62C168.41 21.54 168.78 21.51 169.14 21.53C169.5 21.55 169.82 21.63 170.1 21.77C170.4 21.89 170.65 22.06 170.85 22.28C171.05 22.5 171.18 22.76 171.24 23.06C171.1 23.42 170.88 23.82 170.58 24.26C170.3 24.7 169.96 25.16 169.56 25.64C169.16 26.12 168.73 26.62 168.27 27.14C167.81 27.66 167.34 28.18 166.86 28.7C166.34 29.26 165.79 29.86 165.21 30.5C164.63 31.14 164.12 31.75 163.68 32.33C163.24 32.91 162.92 33.43 162.72 33.89C162.5 34.33 162.48 34.65 162.66 34.85C162.76 34.95 163.03 34.87 163.47 34.61C163.91 34.35 164.47 33.97 165.15 33.47C165.83 32.95 166.6 32.35 167.46 31.67C168.32 30.97 169.21 30.23 170.13 29.45C171.07 28.65 172 27.84 172.92 27.02C173.86 26.18 174.74 25.39 175.56 24.65C176.4 23.89 177.15 23.19 177.81 22.55C178.47 21.91 179 21.39 179.4 20.99C179.7 21.05 179.99 21.15 180.27 21.29C180.55 21.41 180.8 21.57 181.02 21.77C181.24 21.95 181.42 22.15 181.56 22.37C181.7 22.57 181.77 22.77 181.77 22.97C180.35 23.75 179.1 24.72 178.02 25.88C176.96 27.04 176.1 28.21 175.44 29.39C174.78 30.55 174.35 31.63 174.15 32.63C173.95 33.63 174.03 34.38 174.39 34.88C174.63 34.84 175.03 34.65 175.59 34.31C176.15 33.97 176.79 33.54 177.51 33.02C178.23 32.5 178.97 31.92 179.73 31.28C180.49 30.62 181.18 29.94 181.8 29.24C182.54 29.1 182.89 29.48 182.85 30.38C181.93 31.4 180.93 32.4 179.85 33.38C178.77 34.34 177.7 35.19 176.64 35.93C175.58 36.67 174.57 37.26 173.61 37.7C172.67 38.12 171.87 38.31 171.21 38.27C170.37 37.19 170.1 35.93 170.4 34.49C170.72 33.03 171.47 31.4 172.65 29.6C171.47 30.72 170.23 31.86 168.93 33.02C167.65 34.18 166.4 35.22 165.18 36.14C163.96 37.06 162.82 37.77 161.76 38.27C160.68 38.79 159.78 38.96 159.06 38.78ZM194.348 28.91C193.808 29.67 193.328 30.4 192.908 31.1C192.508 31.78 192.178 32.39 191.918 32.93C191.678 33.45 191.518 33.89 191.438 34.25C191.378 34.59 191.428 34.81 191.588 34.91C191.788 34.91 192.188 34.75 192.788 34.43C193.388 34.09 194.058 33.65 194.798 33.11C195.558 32.57 196.338 31.96 197.138 31.28C197.958 30.6 198.678 29.91 199.298 29.21C199.678 29.17 199.948 29.27 200.108 29.51C200.288 29.73 200.368 30.02 200.348 30.38C199.408 31.52 198.388 32.58 197.288 33.56C196.188 34.52 195.098 35.36 194.018 36.08C192.958 36.78 191.948 37.33 190.988 37.73C190.028 38.13 189.218 38.32 188.558 38.3C188.138 38.1 187.898 37.74 187.838 37.22C187.798 36.7 187.878 36.08 188.078 35.36C188.278 34.64 188.578 33.84 188.978 32.96C189.378 32.08 189.828 31.18 190.328 30.26C188.768 30.9 187.348 31.59 186.068 32.33C184.808 33.07 183.698 33.8 182.738 34.52C181.798 35.24 181.018 35.91 180.398 36.53C179.758 37.15 179.288 37.65 178.988 38.03C178.568 37.91 178.188 37.66 177.848 37.28C177.488 36.9 177.228 36.57 177.068 36.29C177.908 35.05 178.788 33.74 179.708 32.36C180.628 30.96 181.538 29.58 182.438 28.22C183.338 26.86 184.198 25.57 185.018 24.35C185.838 23.11 186.548 22.02 187.148 21.08C187.268 20.96 187.508 20.9 187.868 20.9C188.248 20.9 188.638 20.95 189.038 21.05C189.438 21.13 189.788 21.26 190.088 21.44C190.388 21.6 190.528 21.8 190.508 22.04C189.808 22.74 189.088 23.54 188.348 24.44C187.608 25.34 186.888 26.24 186.188 27.14C185.508 28.04 184.868 28.88 184.268 29.66C183.688 30.44 183.198 31.07 182.798 31.55C183.418 31.17 184.048 30.82 184.688 30.5C185.328 30.16 186.008 29.84 186.728 29.54C187.448 29.24 188.208 28.96 189.008 28.7C189.828 28.42 190.718 28.14 191.678 27.86C192.418 26.62 193.168 25.44 193.928 24.32C194.688 23.2 195.348 22.27 195.908 21.53C196.488 20.77 196.908 20.27 197.168 20.03C197.428 19.79 197.438 19.93 197.198 20.45C197.718 20.65 198.198 20.92 198.638 21.26C199.098 21.6 199.488 22.03 199.808 22.55C199.168 23.13 198.518 23.78 197.858 24.5C197.218 25.22 196.578 25.98 195.938 26.78L196.268 26.72L195.848 28.55L194.348 28.91ZM207.548 38.36C206.968 38.12 206.368 37.72 205.748 37.16C205.148 36.58 204.568 35.89 204.008 35.09C203.448 34.27 202.938 33.36 202.478 32.36C202.038 31.36 201.688 30.3 201.428 29.18C200.928 30.04 200.498 30.87 200.138 31.67C199.798 32.47 199.508 33.23 199.268 33.95C199.028 34.65 198.838 35.29 198.698 35.87C198.558 36.45 198.448 36.94 198.368 37.34C198.568 37.34 198.528 37.34 198.248 37.34C197.968 37.34 197.608 37.31 197.168 37.25C196.728 37.17 196.278 37.04 195.818 36.86C195.338 36.66 194.998 36.35 194.798 35.93C195.358 35.07 196.068 33.99 196.928 32.69C197.768 31.37 198.708 29.95 199.748 28.43C200.788 26.91 201.898 25.35 203.078 23.75C204.258 22.13 205.448 20.58 206.648 19.1L209.228 20.78C207.888 21.7 206.708 22.67 205.688 23.69C204.668 24.69 203.768 25.71 202.988 26.75C204.268 26.55 205.598 26.22 206.978 25.76C208.378 25.3 209.678 24.77 210.878 24.17C212.078 23.57 213.118 22.91 213.998 22.19C214.878 21.47 215.458 20.74 215.738 20C216.338 19.98 216.768 20.08 217.028 20.3C217.288 20.5 217.448 20.76 217.508 21.08C217.588 21.4 217.608 21.73 217.568 22.07C217.548 22.41 217.548 22.7 217.568 22.94C216.928 23.56 216.098 24.19 215.078 24.83C214.058 25.45 212.938 26.02 211.718 26.54C210.498 27.06 209.218 27.49 207.878 27.83C206.538 28.15 205.228 28.31 203.948 28.31C204.308 29.23 204.718 30.08 205.178 30.86C205.638 31.62 206.128 32.28 206.648 32.84C207.188 33.4 207.738 33.84 208.298 34.16C208.858 34.48 209.428 34.65 210.008 34.67C210.168 34.69 210.488 34.56 210.968 34.28C211.468 33.98 212.038 33.58 212.678 33.08C213.338 32.58 214.028 32 214.748 31.34C215.488 30.66 216.188 29.96 216.848 29.24C217.248 29.16 217.538 29.23 217.718 29.45C217.898 29.65 217.948 29.96 217.868 30.38C216.868 31.52 215.848 32.57 214.808 33.53C213.768 34.49 212.778 35.33 211.838 36.05C210.918 36.75 210.078 37.3 209.318 37.7C208.578 38.1 207.988 38.32 207.548 38.36Z" fill="#7535FC"/>
</svg>
