<svg width="221" height="51" viewBox="0 0 221 51" fill="none" xmlns="http://www.w3.org/2000/svg">
<path d="M28.89 35.73C27.33 35.35 26.15 34.54 25.35 33.3C24.55 32.08 24.17 30.59 24.21 28.83C24.27 27.05 24.77 25.07 25.71 22.89C26.67 20.71 28.12 18.46 30.06 16.14C31.46 14.46 33 12.99 34.68 11.73C36.36 10.47 38.05 9.44 39.75 8.64C41.45 7.82 43.11 7.22 44.73 6.84C46.35 6.46 47.82 6.31 49.14 6.39C49.42 6.09 49.7 5.8 49.98 5.52C50.28 5.24 50.58 4.96 50.88 4.68C51.6 4.64 52.16 4.75 52.56 5.01C52.98 5.27 53.22 5.62 53.28 6.06C53.06 6.22 52.85 6.38 52.65 6.54C52.45 6.7 52.24 6.86 52.02 7.02C52.5 7.26 52.91 7.55 53.25 7.89C53.23 8.13 53.19 8.4 53.13 8.7C53.07 9 52.97 9.3 52.83 9.6C52.71 9.88 52.55 10.14 52.35 10.38C52.15 10.62 51.92 10.8 51.66 10.92C52.04 11.22 52.32 11.62 52.5 12.12C52.68 12.6 52.77 13.16 52.77 13.8C52.79 14.44 52.71 15.14 52.53 15.9C52.37 16.66 52.14 17.46 51.84 18.3C52.62 18.28 53.41 18.22 54.21 18.12C55.03 18.02 55.8 17.88 56.52 17.7C57.26 17.52 57.94 17.32 58.56 17.1C59.18 16.88 59.7 16.64 60.12 16.38C60.5 16.42 60.73 16.51 60.81 16.65C60.89 16.79 60.91 16.97 60.87 17.19C60.87 17.23 60.86 17.27 60.84 17.31C60.84 17.33 60.84 17.36 60.84 17.4L60.69 17.64C59.13 18.54 57.49 19.23 55.77 19.71C54.07 20.17 52.45 20.42 50.91 20.46C50.35 21.62 49.67 22.81 48.87 24.03C48.09 25.25 47.22 26.43 46.26 27.57C45.32 28.71 44.29 29.79 43.17 30.81C42.07 31.81 40.91 32.69 39.69 33.45C38.49 34.21 37.24 34.82 35.94 35.28C34.64 35.76 33.33 36.02 32.01 36.06C31.65 37.3 31.48 38.34 31.5 39.18C31.28 39.28 31.01 39.32 30.69 39.3C30.37 39.28 30.04 39.21 29.7 39.09C29.38 38.99 29.07 38.83 28.77 38.61C28.49 38.41 28.28 38.16 28.14 37.86C28.24 37.52 28.35 37.17 28.47 36.81C28.61 36.47 28.76 36.11 28.92 35.73H28.89ZM30.6 32.07C31.46 30.37 32.46 28.56 33.6 26.64C34.76 24.7 36.02 22.74 37.38 20.76C38.74 18.78 40.19 16.81 41.73 14.85C43.27 12.87 44.85 10.99 46.47 9.21C45.35 9.27 44.13 9.48 42.81 9.84C41.49 10.2 40.15 10.74 38.79 11.46C37.43 12.18 36.07 13.09 34.71 14.19C33.37 15.27 32.11 16.56 30.93 18.06C29.59 19.78 28.62 21.39 28.02 22.89C27.42 24.39 27.13 25.75 27.15 26.97C27.17 28.17 27.48 29.21 28.08 30.09C28.68 30.97 29.52 31.63 30.6 32.07ZM33.24 32.64C34.38 32.74 35.5 32.64 36.6 32.34C37.7 32.04 38.76 31.6 39.78 31.02C40.8 30.42 41.76 29.72 42.66 28.92C43.58 28.1 44.43 27.22 45.21 26.28C45.99 25.34 46.69 24.37 47.31 23.37C47.95 22.35 48.49 21.35 48.93 20.37C47.57 20.21 46.4 19.83 45.42 19.23C44.46 18.61 43.82 17.76 43.5 16.68L43.41 16.2C42.37 17.52 41.36 18.89 40.38 20.31C39.4 21.73 38.47 23.15 37.59 24.57C36.71 25.97 35.9 27.36 35.16 28.74C34.42 30.1 33.78 31.4 33.24 32.64ZM45.84 15.96C45.98 16.64 46.4 17.16 47.1 17.52C47.8 17.88 48.68 18.12 49.74 18.24C50.2 16.76 50.37 15.55 50.25 14.61C50.13 13.67 49.67 13.13 48.87 12.99C48.47 12.93 48.07 12.98 47.67 13.14C47.29 13.3 46.95 13.53 46.65 13.83C46.35 14.13 46.12 14.47 45.96 14.85C45.8 15.23 45.76 15.6 45.84 15.96ZM48.48 10.32C49 10.26 49.61 10.28 50.31 10.38C50.75 10.44 51.1 10.55 51.36 10.71C51.06 10.13 50.39 9.7 49.35 9.42L48.48 10.32ZM53.0208 31.62C52.2608 31.08 51.7708 30.44 51.5508 29.7C51.3108 28.94 51.2908 28.14 51.4908 27.3C51.6708 26.44 52.0208 25.56 52.5408 24.66C53.0608 23.74 53.6808 22.86 54.4008 22.02C55.1408 21.16 55.9508 20.36 56.8308 19.62C57.7308 18.88 58.6308 18.24 59.5308 17.7L59.5608 17.64C59.7608 17.24 60.1208 16.88 60.6408 16.56C61.1808 16.22 61.7908 15.95 62.4708 15.75C63.1508 15.53 63.8608 15.38 64.6008 15.3C65.3608 15.2 66.0508 15.18 66.6708 15.24C67.3108 15.28 67.8508 15.4 68.2908 15.6C68.7508 15.8 69.0208 16.08 69.1008 16.44C69.2208 16.98 69.1808 17.62 68.9808 18.36C68.7808 19.08 68.4608 19.85 68.0208 20.67C67.6008 21.49 67.0808 22.34 66.4608 23.22C65.8408 24.08 65.1608 24.93 64.4208 25.77C65.1408 25.87 65.9008 25.8 66.7008 25.56C67.5008 25.3 68.2808 24.85 69.0408 24.21C69.3808 24.17 69.6408 24.29 69.8208 24.57C70.0208 24.85 70.1008 25.13 70.0608 25.41C68.9608 26.37 67.7808 27 66.5208 27.3C65.2808 27.58 64.1208 27.57 63.0408 27.27C62.1608 28.15 61.2508 28.95 60.3108 29.67C59.3908 30.39 58.4908 30.97 57.6108 31.41C56.7308 31.83 55.8908 32.08 55.0908 32.16C54.3108 32.22 53.6208 32.04 53.0208 31.62ZM55.0908 28.65C55.4108 28.89 55.7908 29.02 56.2308 29.04C56.6908 29.04 57.1808 28.94 57.7008 28.74C58.2408 28.52 58.8008 28.21 59.3808 27.81C59.9808 27.41 60.5808 26.92 61.1808 26.34C61.0808 26.24 60.9808 26.16 60.8808 26.1C60.8008 26.02 60.7208 25.93 60.6408 25.83C60.2408 25.41 59.9208 24.95 59.6808 24.45C59.4408 23.95 59.2508 23.45 59.1108 22.95C58.9908 22.43 58.9208 21.92 58.9008 21.42C58.8808 20.9 58.8908 20.41 58.9308 19.95C57.7508 20.79 56.8008 21.65 56.0808 22.53C55.3808 23.41 54.8808 24.25 54.5808 25.05C54.3008 25.85 54.2108 26.57 54.3108 27.21C54.4108 27.85 54.6708 28.33 55.0908 28.65ZM62.0508 24.42C62.1308 24.52 62.2008 24.61 62.2608 24.69C62.3208 24.77 62.4008 24.85 62.5008 24.93C62.8008 24.55 63.0908 24.17 63.3708 23.79C63.6708 23.39 63.9608 22.97 64.2408 22.53C64.9408 21.39 65.4408 20.46 65.7408 19.74C66.0408 19.02 66.1708 18.46 66.1308 18.06C66.1108 17.64 65.9508 17.36 65.6508 17.22C65.3708 17.08 64.9908 17.03 64.5108 17.07C64.1308 17.11 63.7608 17.25 63.4008 17.49C63.0408 17.73 62.7108 18.04 62.4108 18.42C62.1108 18.78 61.8508 19.21 61.6308 19.71C61.4308 20.19 61.3008 20.7 61.2408 21.24C61.1808 21.76 61.2108 22.3 61.3308 22.86C61.4508 23.4 61.6908 23.92 62.0508 24.42ZM84.3727 33.3C83.5927 32.9 83.1827 32.34 83.1427 31.62C83.1027 30.9 83.2727 30.12 83.6527 29.28C84.0527 28.44 84.5827 27.58 85.2427 26.7C85.9227 25.82 86.5727 25.02 87.1927 24.3C87.8127 23.58 88.3227 22.93 88.7227 22.35C89.1427 21.77 89.4127 21.32 89.5327 21C89.6727 20.66 89.6427 20.46 89.4427 20.4C89.2627 20.34 88.9027 20.47 88.3627 20.79C88.0827 20.95 87.8227 21.11 87.5827 21.27C87.3627 21.43 87.1427 21.59 86.9227 21.75C86.7227 21.89 86.5227 22.03 86.3227 22.17C86.1427 22.31 85.9427 22.44 85.7227 22.56C84.4427 23.56 83.1927 24.62 81.9727 25.74C80.7727 26.86 79.6727 27.92 78.6727 28.92C77.6927 29.9 76.8527 30.77 76.1527 31.53C75.4727 32.27 75.0227 32.77 74.8027 33.03C74.4027 32.91 74.0227 32.66 73.6627 32.28C73.3027 31.9 73.0427 31.56 72.8827 31.26C73.4227 30.54 74.0027 29.77 74.6227 28.95C75.2427 28.11 75.8727 27.26 76.5127 26.4C77.1527 25.52 77.7727 24.66 78.3727 23.82C78.9927 22.96 79.5627 22.16 80.0827 21.42C80.3027 21.02 80.3627 20.81 80.2627 20.79C80.1827 20.75 79.7927 20.88 79.0927 21.18C77.8927 21.88 76.7927 22.64 75.7927 23.46C74.8127 24.26 73.9427 25.04 73.1827 25.8C72.4227 26.56 71.7827 27.25 71.2627 27.87C70.7427 28.47 70.3527 28.92 70.0927 29.22C69.5727 29.84 69.0527 30.44 68.5327 31.02C68.0127 31.6 67.4827 32.15 66.9427 32.67C66.6827 32.69 66.4427 32.63 66.2227 32.49C65.9827 32.33 65.7827 32.14 65.6227 31.92C65.4427 31.68 65.3027 31.43 65.2027 31.17C65.1027 30.91 65.0527 30.67 65.0527 30.45C65.5727 29.49 66.3127 28.27 67.2727 26.79C68.2327 25.31 69.2827 23.71 70.4227 21.99C71.0827 21.01 71.7427 20.02 72.4027 19.02C73.0627 18.02 73.7127 17.04 74.3527 16.08C74.4727 15.98 74.7227 15.93 75.1027 15.93C75.4827 15.91 75.8727 15.95 76.2727 16.05C76.6727 16.13 77.0227 16.26 77.3227 16.44C77.6227 16.6 77.7527 16.8 77.7127 17.04C76.1527 18.62 74.7327 20.18 73.4527 21.72C72.1927 23.24 71.0827 24.73 70.1227 26.19C71.0827 25.33 72.0727 24.45 73.0927 23.55C74.1127 22.65 75.1027 21.81 76.0627 21.03C77.0427 20.23 77.9527 19.51 78.7927 18.87C79.6527 18.23 80.3927 17.74 81.0127 17.4C82.2527 16.7 83.2327 16.28 83.9527 16.14C84.6927 16 85.1427 16.13 85.3027 16.53C85.4827 16.91 85.3527 17.55 84.9127 18.45C84.4927 19.35 83.7427 20.49 82.6627 21.87C82.1027 22.57 81.6627 23.14 81.3427 23.58C81.0227 24.02 80.7727 24.37 80.5927 24.63C80.6727 24.57 80.7527 24.51 80.8327 24.45C80.9127 24.37 81.0027 24.3 81.1027 24.24C81.4227 23.94 81.8027 23.6 82.2427 23.22C82.7027 22.82 83.1827 22.41 83.6827 21.99C84.1827 21.57 84.6827 21.16 85.1827 20.76C85.6827 20.34 86.1427 19.97 86.5627 19.65C86.9827 19.31 87.3327 19.03 87.6127 18.81C87.9127 18.57 88.1027 18.42 88.1827 18.36C89.4427 17.44 90.5427 16.84 91.4827 16.56C92.4427 16.28 93.1227 16.31 93.5227 16.65C93.9427 16.97 94.0227 17.59 93.7627 18.51C93.5027 19.41 92.8027 20.58 91.6627 22.02C90.6027 23.36 89.7227 24.5 89.0227 25.44C88.3227 26.36 87.7927 27.13 87.4327 27.75C87.0927 28.35 86.9127 28.82 86.8927 29.16C86.8927 29.5 87.0627 29.75 87.4027 29.91C87.5827 29.91 87.9527 29.74 88.5127 29.4C89.0727 29.04 89.7127 28.59 90.4327 28.05C91.1727 27.51 91.9327 26.91 92.7127 26.25C93.5127 25.57 94.2427 24.9 94.9027 24.24C95.7027 24.08 96.0527 24.46 95.9527 25.38C94.9527 26.52 93.9127 27.58 92.8327 28.56C91.7527 29.52 90.6927 30.36 89.6527 31.08C88.6327 31.78 87.6627 32.33 86.7427 32.73C85.8227 33.13 85.0327 33.32 84.3727 33.3ZM95.0911 31.62C94.3311 31.08 93.8411 30.44 93.6211 29.7C93.3811 28.94 93.3611 28.14 93.5611 27.3C93.7411 26.44 94.0911 25.56 94.6111 24.66C95.1311 23.74 95.7511 22.86 96.4711 22.02C97.2111 21.16 98.0211 20.36 98.9011 19.62C99.8011 18.88 100.701 18.24 101.601 17.7L101.631 17.64C101.831 17.24 102.191 16.88 102.711 16.56C103.251 16.22 103.861 15.95 104.541 15.75C105.221 15.53 105.931 15.38 106.671 15.3C107.431 15.2 108.121 15.18 108.741 15.24C109.381 15.28 109.921 15.4 110.361 15.6C110.821 15.8 111.091 16.08 111.171 16.44C111.291 16.98 111.251 17.62 111.051 18.36C110.851 19.08 110.531 19.85 110.091 20.67C109.671 21.49 109.151 22.34 108.531 23.22C107.911 24.08 107.231 24.93 106.491 25.77C107.211 25.87 107.971 25.8 108.771 25.56C109.571 25.3 110.351 24.85 111.111 24.21C111.451 24.17 111.711 24.29 111.891 24.57C112.091 24.85 112.171 25.13 112.131 25.41C111.031 26.37 109.851 27 108.591 27.3C107.351 27.58 106.191 27.57 105.111 27.27C104.231 28.15 103.321 28.95 102.381 29.67C101.461 30.39 100.561 30.97 99.6811 31.41C98.8011 31.83 97.9611 32.08 97.1611 32.16C96.3811 32.22 95.6911 32.04 95.0911 31.62ZM97.1611 28.65C97.4811 28.89 97.8611 29.02 98.3011 29.04C98.7611 29.04 99.2511 28.94 99.7711 28.74C100.311 28.52 100.871 28.21 101.451 27.81C102.051 27.41 102.651 26.92 103.251 26.34C103.151 26.24 103.051 26.16 102.951 26.1C102.871 26.02 102.791 25.93 102.711 25.83C102.311 25.41 101.991 24.95 101.751 24.45C101.511 23.95 101.321 23.45 101.181 22.95C101.061 22.43 100.991 21.92 100.971 21.42C100.951 20.9 100.961 20.41 101.001 19.95C99.8211 20.79 98.8711 21.65 98.1511 22.53C97.4511 23.41 96.9511 24.25 96.6511 25.05C96.3711 25.85 96.2811 26.57 96.3811 27.21C96.4811 27.85 96.7411 28.33 97.1611 28.65ZM104.121 24.42C104.201 24.52 104.271 24.61 104.331 24.69C104.391 24.77 104.471 24.85 104.571 24.93C104.871 24.55 105.161 24.17 105.441 23.79C105.741 23.39 106.031 22.97 106.311 22.53C107.011 21.39 107.511 20.46 107.811 19.74C108.111 19.02 108.241 18.46 108.201 18.06C108.181 17.64 108.021 17.36 107.721 17.22C107.441 17.08 107.061 17.03 106.581 17.07C106.201 17.11 105.831 17.25 105.471 17.49C105.111 17.73 104.781 18.04 104.481 18.42C104.181 18.78 103.921 19.21 103.701 19.71C103.501 20.19 103.371 20.7 103.311 21.24C103.251 21.76 103.281 22.3 103.401 22.86C103.521 23.4 103.761 23.92 104.121 24.42ZM114.623 33.3C114.103 33.04 113.753 32.7 113.573 32.28C113.413 31.86 113.363 31.4 113.423 30.9C113.503 30.4 113.673 29.87 113.933 29.31C114.213 28.73 114.543 28.15 114.923 27.57C115.303 26.99 115.713 26.42 116.153 25.86C116.593 25.3 117.023 24.78 117.443 24.3C118.083 23.58 118.603 22.93 119.003 22.35C119.423 21.77 119.693 21.32 119.813 21C119.933 20.66 119.903 20.46 119.723 20.4C119.543 20.34 119.183 20.47 118.643 20.79C118.343 20.95 118.073 21.12 117.833 21.3C117.593 21.46 117.363 21.62 117.143 21.78C116.963 21.92 116.783 22.06 116.603 22.2C116.423 22.32 116.223 22.44 116.003 22.56C115.143 23.22 114.293 23.92 113.453 24.66C112.633 25.38 111.843 26.1 111.083 26.82C110.323 27.54 109.613 28.24 108.953 28.92C108.273 29.58 107.673 30.19 107.153 30.75C106.633 31.29 106.193 31.76 105.833 32.16C105.473 32.56 105.223 32.85 105.083 33.03C104.643 32.91 104.253 32.65 103.913 32.25C103.553 31.85 103.293 31.51 103.133 31.23C103.653 30.77 104.193 30.3 104.753 29.82C105.313 29.32 105.903 28.8 106.523 28.26C108.103 26.86 109.863 25.33 111.803 23.67C113.743 21.99 115.953 20.22 118.433 18.36C119.693 17.44 120.793 16.84 121.733 16.56C122.693 16.28 123.373 16.31 123.773 16.65C124.193 16.97 124.273 17.59 124.013 18.51C123.773 19.41 123.083 20.58 121.943 22.02C120.883 23.36 120.003 24.5 119.303 25.44C118.603 26.36 118.073 27.13 117.713 27.75C117.373 28.35 117.193 28.82 117.173 29.16C117.173 29.5 117.333 29.75 117.653 29.91C117.853 29.91 118.253 29.75 118.853 29.43C119.453 29.09 120.133 28.66 120.893 28.14C121.653 27.6 122.433 26.99 123.233 26.31C124.053 25.63 124.773 24.93 125.393 24.21C125.773 24.17 126.043 24.27 126.203 24.51C126.383 24.73 126.463 25.02 126.443 25.38C125.503 26.52 124.483 27.58 123.383 28.56C122.283 29.52 121.193 30.36 120.113 31.08C119.033 31.78 118.013 32.33 117.053 32.73C116.093 33.13 115.283 33.32 114.623 33.3ZM121.06 33.78C120.54 33.34 120.33 32.77 120.43 32.07C120.53 31.35 120.82 30.58 121.3 29.76C121.76 28.92 122.34 28.05 123.04 27.15C123.72 26.25 124.4 25.37 125.08 24.51C125.66 23.79 126.23 23.07 126.79 22.35C127.35 21.63 127.85 20.94 128.29 20.28C128.75 19.6 129.13 18.95 129.43 18.33C129.75 17.71 129.95 17.14 130.03 16.62C130.41 16.54 130.78 16.51 131.14 16.53C131.5 16.55 131.82 16.63 132.1 16.77C132.4 16.89 132.65 17.06 132.85 17.28C133.05 17.5 133.18 17.76 133.24 18.06C133.1 18.42 132.88 18.82 132.58 19.26C132.3 19.7 131.96 20.16 131.56 20.64C131.16 21.12 130.73 21.62 130.27 22.14C129.81 22.66 129.34 23.18 128.86 23.7C128.34 24.26 127.79 24.86 127.21 25.5C126.63 26.14 126.12 26.75 125.68 27.33C125.24 27.91 124.92 28.43 124.72 28.89C124.5 29.33 124.48 29.65 124.66 29.85C124.76 29.95 125.03 29.87 125.47 29.61C125.91 29.35 126.47 28.97 127.15 28.47C127.83 27.95 128.6 27.35 129.46 26.67C130.32 25.97 131.21 25.23 132.13 24.45C133.07 23.65 134 22.84 134.92 22.02C135.86 21.18 136.74 20.39 137.56 19.65C138.4 18.89 139.15 18.19 139.81 17.55C140.47 16.91 141 16.39 141.4 15.99C141.7 16.05 141.99 16.15 142.27 16.29C142.55 16.41 142.8 16.57 143.02 16.77C143.24 16.95 143.42 17.15 143.56 17.37C143.7 17.57 143.77 17.77 143.77 17.97C142.35 18.75 141.1 19.72 140.02 20.88C138.96 22.04 138.1 23.21 137.44 24.39C136.78 25.55 136.35 26.63 136.15 27.63C135.95 28.63 136.03 29.38 136.39 29.88C136.63 29.84 137.03 29.65 137.59 29.31C138.15 28.97 138.79 28.54 139.51 28.02C140.23 27.5 140.97 26.92 141.73 26.28C142.49 25.62 143.18 24.94 143.8 24.24C144.54 24.1 144.89 24.48 144.85 25.38C143.93 26.4 142.93 27.4 141.85 28.38C140.77 29.34 139.7 30.19 138.64 30.93C137.58 31.67 136.57 32.26 135.61 32.7C134.67 33.12 133.87 33.31 133.21 33.27C132.37 32.19 132.1 30.93 132.4 29.49C132.72 28.03 133.47 26.4 134.65 24.6C133.47 25.72 132.23 26.86 130.93 28.02C129.65 29.18 128.4 30.22 127.18 31.14C125.96 32.06 124.82 32.77 123.76 33.27C122.68 33.79 121.78 33.96 121.06 33.78ZM156.348 23.91C155.808 24.67 155.328 25.4 154.908 26.1C154.508 26.78 154.178 27.39 153.918 27.93C153.678 28.45 153.518 28.89 153.438 29.25C153.378 29.59 153.428 29.81 153.588 29.91C153.788 29.91 154.188 29.75 154.788 29.43C155.388 29.09 156.058 28.65 156.798 28.11C157.558 27.57 158.338 26.96 159.138 26.28C159.958 25.6 160.678 24.91 161.298 24.21C161.678 24.17 161.948 24.27 162.108 24.51C162.288 24.73 162.368 25.02 162.348 25.38C161.408 26.52 160.388 27.58 159.288 28.56C158.188 29.52 157.098 30.36 156.018 31.08C154.958 31.78 153.948 32.33 152.988 32.73C152.028 33.13 151.218 33.32 150.558 33.3C150.138 33.1 149.898 32.74 149.838 32.22C149.798 31.7 149.878 31.08 150.078 30.36C150.278 29.64 150.578 28.84 150.978 27.96C151.378 27.08 151.828 26.18 152.328 25.26C150.768 25.9 149.348 26.59 148.068 27.33C146.808 28.07 145.698 28.8 144.738 29.52C143.798 30.24 143.018 30.91 142.398 31.53C141.758 32.15 141.288 32.65 140.988 33.03C140.568 32.91 140.188 32.66 139.848 32.28C139.488 31.9 139.228 31.57 139.068 31.29C139.908 30.05 140.788 28.74 141.708 27.36C142.628 25.96 143.538 24.58 144.438 23.22C145.338 21.86 146.198 20.57 147.018 19.35C147.838 18.11 148.548 17.02 149.148 16.08C149.268 15.96 149.508 15.9 149.868 15.9C150.248 15.9 150.638 15.95 151.038 16.05C151.438 16.13 151.788 16.26 152.088 16.44C152.388 16.6 152.528 16.8 152.508 17.04C151.808 17.74 151.088 18.54 150.348 19.44C149.608 20.34 148.888 21.24 148.188 22.14C147.508 23.04 146.868 23.88 146.268 24.66C145.688 25.44 145.198 26.07 144.798 26.55C145.418 26.17 146.048 25.82 146.688 25.5C147.328 25.16 148.008 24.84 148.728 24.54C149.448 24.24 150.208 23.96 151.008 23.7C151.828 23.42 152.718 23.14 153.678 22.86C154.418 21.62 155.168 20.44 155.928 19.32C156.688 18.2 157.348 17.27 157.908 16.53C158.488 15.77 158.908 15.27 159.168 15.03C159.428 14.79 159.438 14.93 159.198 15.45C159.718 15.65 160.198 15.92 160.638 16.26C161.098 16.6 161.488 17.03 161.808 17.55C161.168 18.13 160.518 18.78 159.858 19.5C159.218 20.22 158.578 20.98 157.938 21.78L158.268 21.72L157.848 23.55L156.348 23.91ZM169.548 33.36C168.968 33.12 168.368 32.72 167.748 32.16C167.148 31.58 166.568 30.89 166.008 30.09C165.448 29.27 164.938 28.36 164.478 27.36C164.038 26.36 163.688 25.3 163.428 24.18C162.928 25.04 162.498 25.87 162.138 26.67C161.798 27.47 161.508 28.23 161.268 28.95C161.028 29.65 160.838 30.29 160.698 30.87C160.558 31.45 160.448 31.94 160.368 32.34C160.568 32.34 160.528 32.34 160.248 32.34C159.968 32.34 159.608 32.31 159.168 32.25C158.728 32.17 158.278 32.04 157.818 31.86C157.338 31.66 156.998 31.35 156.798 30.93C157.358 30.07 158.068 28.99 158.928 27.69C159.768 26.37 160.708 24.95 161.748 23.43C162.788 21.91 163.898 20.35 165.078 18.75C166.258 17.13 167.448 15.58 168.648 14.1L171.228 15.78C169.888 16.7 168.708 17.67 167.688 18.69C166.668 19.69 165.768 20.71 164.988 21.75C166.268 21.55 167.598 21.22 168.978 20.76C170.378 20.3 171.678 19.77 172.878 19.17C174.078 18.57 175.118 17.91 175.998 17.19C176.878 16.47 177.458 15.74 177.738 15C178.338 14.98 178.768 15.08 179.028 15.3C179.288 15.5 179.448 15.76 179.508 16.08C179.588 16.4 179.608 16.73 179.568 17.07C179.548 17.41 179.548 17.7 179.568 17.94C178.928 18.56 178.098 19.19 177.078 19.83C176.058 20.45 174.938 21.02 173.718 21.54C172.498 22.06 171.218 22.49 169.878 22.83C168.538 23.15 167.228 23.31 165.948 23.31C166.308 24.23 166.718 25.08 167.178 25.86C167.638 26.62 168.128 27.28 168.648 27.84C169.188 28.4 169.738 28.84 170.298 29.16C170.858 29.48 171.428 29.65 172.008 29.67C172.168 29.69 172.488 29.56 172.968 29.28C173.468 28.98 174.038 28.58 174.678 28.08C175.338 27.58 176.028 27 176.748 26.34C177.488 25.66 178.188 24.96 178.848 24.24C179.248 24.16 179.538 24.23 179.718 24.45C179.898 24.65 179.948 24.96 179.868 25.38C178.868 26.52 177.848 27.57 176.808 28.53C175.768 29.49 174.778 30.33 173.838 31.05C172.918 31.75 172.078 32.3 171.318 32.7C170.578 33.1 169.988 33.32 169.548 33.36Z" fill="#7535FC"/>
</svg>
